# xmcd
#
# Track frame offsets:
#	150
#	1680
#	12918
#	16590
#	40035
#	55930
#	77555
#	96633
#	115430
#	131378
#	147645
#	165643
#
# Disc length: 2435 seconds
#
# Revision: 4
# Processed by: cddbd v1.5.2PL0 Copyright (c) Steve Scherf et al.
# Submitted via: audiograbber 1.83.01
#
DISCID=8f09810c
DTITLE=King, B. B. - Blues is king
DYEAR=1967
DGENRE=Blues
TTITLE0=Introduction
TTITLE1=Waitin' on you
TTITLE2=Introduction
TTITLE3=Gamblers' blues
TTITLE4=Tired of your jive
TTITLE5=Night life
TTITLE6=Buzz me
TTITLE7=Don't answer the door
TTITLE8=Blind love
TTITLE9=I know what you're puttin' down
TTITLE10=Baby get lost
TTITLE11=Gonna keep on loving you
EXTD=
EXTT0=
EXTT1=
EXTT2=
EXTT3=
EXTT4=
EXTT5=
EXTT6=
EXTT7=
EXTT8=
EXTT9=
EXTT10=
EXTT11=
PLAYORDER=
